<?xml version="1.0" encoding="UTF-8"?><svg id="Calque_2" xmlns="http://www.w3.org/2000/svg" viewBox="0 0 1024 1024"><defs><style>.cls-1{fill:gray;}</style></defs><rect class="cls-1" x="412" width="200" height="150" rx="37.39" ry="37.39"/><rect class="cls-1" x="412" y="874" width="200" height="150" rx="37.39" ry="37.39"/><rect class="cls-1" x="102.99" y="127.99" width="200" height="150" rx="37.39" ry="37.39" transform="translate(-84.08 202.99) rotate(-45)"/><rect class="cls-1" x="721.01" y="746.01" width="200" height="150" rx="37.39" ry="37.39" transform="translate(-340.07 821.01) rotate(-45)"/><rect class="cls-1" x="849" y="437" width="200" height="150" rx="37.39" ry="37.39" transform="translate(437 1461) rotate(-90)"/><rect class="cls-1" x="-25" y="437" width="200" height="150" rx="37.39" ry="37.39" transform="translate(-437 587) rotate(-90)"/><rect class="cls-1" x="102.99" y="746.01" width="200" height="150" rx="37.39" ry="37.39" transform="translate(-234.01 1545.08) rotate(-135)"/><rect class="cls-1" x="721.01" y="127.99" width="200" height="150" rx="37.39" ry="37.39" transform="translate(1258.01 927.07) rotate(-135)"/><path class="cls-1" d="m512,112c-220.91,0-400,179.09-400,400s179.09,400,400,400,400-179.09,400-400S732.91,112,512,112Zm0,662.5c-144.97,0-262.5-117.53-262.5-262.5s117.53-262.5,262.5-262.5,262.5,117.53,262.5,262.5-117.53,262.5-262.5,262.5Z"/></svg>